:SAMPLES-PER-SECOND 30
:FULLY-SPECIFIED
:DEGREES
62
root  67.0399 38.4776 -13.1207 -8.34927 -78.3374 8.87895
RightUpLeg  4.34783 -8.88956 -4.12461
RightLeg  13.2466 6.55765 1.02882
RightFoot  -17.8814 -0.158352 -0.658309
RightToes  -1.16417e-010 0 -3.6325e-017
Spine  0.340368 1.67752 9.55407
Spine1  6.30029 2.61952 -4.61665
HEad  -4.41628 -2.84057 -4.06006
LeftShoulder1  -0.839314 5.67859 -32.4322
LeftArm  -5.49284 17.1174 -38.3447
LeftForeArm  33.2732 -10.6107 -7.06496
LeftHand  -0.248141 12.7524 -2.78558
RightShoulder  -1.07141 -6.36393 30.9115
RightArm  18.5344 2.097 42.2671
RightForeArm  14.8356 10.6973 7.76749
RightHand  -0.310661 5.07992 -3.61594
LeftUpLeg  -22.4978 3.35475 -0.303684
LeftLeg  7.3697 0.603109 -0.533181
LeftFoot  0.148333 0.683594 -6.79914
LeftToes  1.47335e-010 -1.29615e-010 3.08757e-011
63
root  66.3004 38.3362 -12.8476 -8.22451 -79.0276 8.91209
RightUpLeg  5.44623 -8.62923 -4.3082
RightLeg  13.1716 7.12614 0.789659
RightFoot  -18.9007 -0.140973 -0.19969
RightToes  -1.16417e-010 0 -3.6325e-017
Spine  0.514661 1.87342 9.71637
Spine1  6.16311 3.02407 -5.39432
HEad  -5.0707 -3.43141 -3.71256
LeftShoulder1  -0.831101 5.65769 -32.407
LeftArm  -5.31072 17.8524 -38.008
LeftForeArm  34.0312 -10.727 -6.99741
LeftHand  -0.165801 8.66973 -3.73501
RightShoulder  -1.05554 -6.31926 30.9357
RightArm  17.5546 1.37126 42.3904
RightForeArm  16.9782 10.4972 7.47793
RightHand  -0.0129482 1.97888 -0.426714
LeftUpLeg  -22.9326 3.48775 -0.737647
LeftLeg  8.56883 1.11249 -0.321422
LeftFoot  0.0360429 0.621452 -6.22767
LeftToes  1.47335e-010 -1.29615e-010 3.08757e-011
64
root  65.4268 38.1474 -12.5154 -9.70176 -79.8437 10.6303
RightUpLeg  6.51816 -8.49793 -4.94725
RightLeg  13.5248 8.01898 0.630112
RightFoot  -20.2199 -0.12357 0.172043
RightToes  -1.16417e-010 0 -3.6325e-017
Spine  -0.102035 2.36963 10.2843
Spine1  6.20631 3.9408 -7.2226
HEad  -4.52055 -4.64728 -2.95447
LeftShoulder1  -0.715703 5.38195 -31.9564
LeftArm  -5.32074 18.5366 -37.5912
LeftForeArm  34.0351 -10.8763 -6.90157
LeftHand  -0.176523 9.00575 -3.87329
RightShoulder  -1.0733 -6.35677 31.0598
RightArm  16.7928 -0.125273 42.8246
RightForeArm  15.8829 10.0867 7.4658
RightHand  -0.131865 2.68234 -2.05175
LeftUpLeg  -23.2466 3.89005 -1.70016
LeftLeg  11.5577 0.570583 0.0164032
LeftFoot  -0.25406 0.497008 -5.08333
LeftToes  1.47335e-010 -1.29615e-010 3.08757e-011
65
root  64.458 38.0334 -12.1585 -15.8899 -80.7848 17.0258
RightUpLeg  8.08948 -8.31103 -6.44652
RightLeg  13.1559 9.26703 0.429939
RightFoot  -21.126 -0.0813737 0.722668
RightToes  -1.16417e-010 0 -3.6325e-017
Spine  -0.470963 2.76412 9.62253
Spine1  5.13787 4.63981 -8.77514
HEad  -2.7364 -5.40667 -2.50687
LeftShoulder1  -0.762298 5.49589 -32.1067
LeftArm  -3.80358 19.9165 -35.9393
LeftForeArm  32.6736 -11.7854 -6.94454
LeftHand  -0.188597 8.89893 -4.38163
RightShoulder  -0.949468 -6.04561 30.7764
RightArm  16.2047 -2.20356 43.3133
RightForeArm  18.7938 9.42938 7.40146
RightHand  0.0417827 2.2687 0.425131
LeftUpLeg  -22.908 4.01917 -3.12584
LeftLeg  14.0151 0.170314 0.175387
LeftFoot  1.58728 0.159354 -1.70803
LeftToes  1.47335e-010 -1.29615e-010 3.08757e-011
66
root  63.4399 37.9885 -11.7753 -24.834 -81.7236 26.1517
RightUpLeg  9.63027 -7.22191 -8.01921
RightLeg  12.7956 9.85023 0.0602938
RightFoot  -21.4054 0.0309204 1.9906
RightToes  -1.16417e-010 0 -3.6325e-017
Spine  -1.11189 3.29043 8.57939
Spine1  4.35497 5.49556 -10.5555
HEad  -0.986743 -5.3956 -2.32036
LeftShoulder1  -0.732593 5.41438 -32.1974
LeftArm  -3.21006 21.2317 -34.3597
LeftForeArm  31.3973 -12.7273 -6.6299
LeftHand  -0.185391 9.1423 -3.95587
RightShoulder  -1.09276 -6.37225 31.5062
RightArm  16.4488 -3.80355 43.0423
RightForeArm  18.3596 9.22182 7.51467
RightHand  -0.0812415 1.9038 -1.38804
LeftUpLeg  -22.2242 3.7109 -4.41227
LeftLeg  15.2298 1.49501 0.588082
LeftFoot  4.14355 -0.361473 2.56463
LeftToes  1.47335e-010 -1.29615e-010 3.08757e-011
